<?xml version="1.0" encoding="UTF-8"?>
<svg xmlns="http://www.w3.org/2000/svg" xmlns:xlink="http://www.w3.org/1999/xlink" width="17px" height="19px" viewBox="0 0 17 19" version="1.1">
<g id="surface1">
<path style=" stroke:none;fill-rule:nonzero;fill:rgb(0%,0%,0%);fill-opacity:1;" d="M 3.804688 16.625 L 0.28125 16.625 L 0.28125 5.527344 L 3.804688 5.527344 Z M 2.042969 4.011719 C 0.914062 4.011719 0 3.097656 0 1.996094 C 0 0.894531 0.914062 0 2.042969 0 C 3.167969 0 4.082031 0.894531 4.082031 1.996094 C 4.082031 3.097656 3.167969 4.011719 2.042969 4.011719 Z M 16.996094 16.625 L 13.480469 16.625 L 13.480469 11.222656 C 13.480469 9.933594 13.453125 8.28125 11.648438 8.28125 C 9.816406 8.28125 9.535156 9.683594 9.535156 11.128906 L 9.535156 16.625 L 6.011719 16.625 L 6.011719 5.527344 L 9.394531 5.527344 L 9.394531 7.039062 L 9.441406 7.039062 C 9.914062 6.167969 11.0625 5.246094 12.777344 5.246094 C 16.34375 5.246094 17 7.542969 17 10.527344 L 17 16.625 Z M 16.996094 16.625 "/>
</g>
</svg>
